<svg version="1.1" id="Layer_1" xmlns="http://www.w3.org/2000/svg" xmlns:xlink="http://www.w3.org/1999/xlink" x="0px" y="0px"
	 width="100%" viewBox="0 0 1313 823" enable-background="new 0 0 1313 823" xml:space="preserve">
<path fill="#FFFFFF" opacity="1.000000" stroke="none" 
	d="
M1313.724487,659.736023 
	C1314.000000,713.318115 1313.962402,766.636353 1314.090210,819.954163 
	C1314.098145,823.276672 1313.565430,824.100098 1310.047852,824.099243 
	C875.005249,823.994263 439.962677,823.994019 4.920105,824.102844 
	C1.336953,824.103760 0.875532,823.180359 0.910389,819.921387 
	C1.099277,802.261719 1.000000,784.598999 1.000000,766.468628 
	C1.604760,765.218506 2.067869,764.321655 2.954503,763.777771 
	C15.805690,755.894897 28.301561,747.452271 41.443130,739.353027 
	C63.621216,725.913086 85.462959,712.613831 108.190384,700.096375 
	C128.075073,689.520447 148.216766,680.298340 168.149094,670.649536 
	C169.502228,669.994507 170.936935,669.550232 172.695587,668.958130 
	C175.622635,667.991455 178.443481,667.777771 181.006470,665.857483 
	C181.496048,665.533203 181.697098,665.408569 182.212341,665.109924 
	C182.743073,664.827271 182.959595,664.718628 183.512177,664.459229 
	C184.080551,664.219849 184.312820,664.131104 184.903275,663.927856 
	C198.388504,659.644897 211.255905,654.688477 224.515869,650.920532 
	C230.427643,649.240601 236.406708,647.832336 242.729935,646.191589 
	C243.859192,645.837952 244.633774,645.661438 245.764633,645.237244 
	C246.421860,645.014526 246.690048,644.931519 247.371292,644.741577 
	C272.288330,639.583191 296.924835,635.748596 322.506042,636.552551 
	C341.517365,636.308533 359.788910,638.791992 378.327087,642.660767 
	C379.780945,642.973206 380.755920,643.438782 382.177734,643.716675 
	C382.791107,643.843079 383.032990,643.900330 383.629883,644.055420 
	C384.902832,644.436218 385.818726,644.728699 387.152832,644.772522 
	C390.409637,645.197144 393.212280,645.992676 396.356079,646.921753 
	C397.395020,647.244690 398.067902,647.524536 399.155853,647.678772 
	C401.260193,647.961792 402.929779,648.487976 404.985718,649.045532 
	C421.193268,653.374268 436.709473,658.631836 452.623810,663.921509 
	C476.553986,672.402954 499.745453,681.761658 523.713745,690.143555 
	C536.758728,695.640320 549.825684,699.942383 562.846863,704.355652 
	C570.691650,707.014526 578.440002,709.996399 586.906128,712.033569 
	C602.292175,716.391663 617.285828,720.667419 633.177490,723.031128 
	C656.759094,727.545166 680.078491,728.783569 703.567383,726.627563 
	C705.556152,726.445007 707.554626,726.538696 709.952454,726.241821 
	C729.137634,723.759216 747.455872,719.392151 765.818420,713.462219 
	C767.385742,712.914978 768.625427,712.641174 770.165649,712.106567 
	C772.981689,711.263916 775.293762,710.054016 778.169739,709.452209 
	C778.933350,709.211853 779.371765,709.086243 780.135254,708.864746 
	C780.888733,708.623352 781.318420,708.482178 782.066345,708.217285 
	C785.701965,707.157166 788.848877,705.789001 792.278198,704.183960 
	C793.260864,703.802673 793.930725,703.581848 794.896912,703.129883 
	C812.319092,696.158936 829.294983,689.069336 846.061523,680.611206 
	C849.269775,679.541565 852.023071,678.327515 854.961243,676.663574 
	C855.471191,676.370117 855.677612,676.254883 856.199463,675.974243 
	C868.871094,669.962341 881.195740,664.049988 893.856201,658.038696 
	C895.295532,657.663635 896.357483,657.294495 897.531738,656.352539 
	C899.558838,654.923401 901.693298,654.488647 903.812683,653.190979 
	C929.075378,640.630310 954.502441,629.343323 980.855103,619.194702 
	C1000.969482,611.375977 1021.354492,605.861389 1042.406494,601.227173 
	C1043.806030,600.881165 1044.845337,600.798950 1046.268311,600.710449 
	C1047.906982,600.684570 1049.158325,600.627197 1050.753174,600.210327 
	C1052.139771,599.876709 1053.177002,599.779724 1054.612183,599.608459 
	C1055.854614,599.483765 1056.634399,599.156006 1057.882690,598.869995 
	C1077.283081,596.602051 1096.276611,597.056641 1115.272095,598.252258 
	C1118.245605,598.439453 1121.229736,598.323059 1124.633179,598.725586 
	C1144.343506,602.267395 1163.610962,605.762695 1182.529663,610.916992 
	C1185.412476,611.702332 1188.308960,612.431885 1191.530151,613.503296 
	C1217.466675,621.052734 1242.345703,630.408447 1267.568359,639.956726 
	C1281.399658,645.585815 1294.815186,651.209045 1308.340454,656.563293 
	C1310.177246,657.290405 1312.112915,657.858765 1313.724487,659.736023 
z"/>
<path fill="#31B3EE" opacity="1.000000" stroke="none" 
	d="
M981.354797,619.864075 
	C960.864319,628.520996 940.453430,636.968872 920.529907,646.543579 
	C915.287659,649.062866 910.014099,651.517029 904.394470,654.040161 
	C901.986816,653.352295 899.913574,653.774414 897.500122,653.907959 
	C896.469238,653.740417 895.847961,653.451538 894.978516,652.896545 
	C894.347046,652.430542 894.001038,652.147644 893.394653,651.663330 
	C889.597412,648.729187 888.334045,653.021362 885.539185,653.828613 
	C882.619080,653.557617 882.043640,652.040405 883.049377,649.981873 
	C884.665466,646.674194 884.436218,643.178223 884.453735,639.690002 
	C884.537109,623.027710 884.295227,606.364563 884.627808,589.249878 
	C885.140808,586.444031 885.499207,584.082458 885.260498,581.202942 
	C885.474609,575.405090 884.313721,570.180542 884.317993,564.829285 
	C884.415649,441.525970 884.392517,318.222504 884.398743,194.919098 
	C884.398926,192.088898 884.270508,189.252304 884.739685,186.010971 
	C884.930420,185.282135 884.969055,184.843307 885.197083,184.710892 
	C889.498779,182.212524 888.882568,179.754654 885.018311,176.889008 
	C884.276733,174.194550 884.387939,171.853409 884.387451,169.525833 
	C884.376160,116.225494 884.374207,62.925152 884.396118,9.624821 
	C884.397217,6.984561 884.049988,4.270183 885.699219,1.394746 
	C917.354248,1.000000 948.708435,1.000000 980.531372,1.000000 
	C982.334106,2.464062 982.506592,4.284949 982.573059,6.136354 
	C982.644836,8.135077 982.618347,10.134798 982.618347,12.134106 
	C982.619751,206.579269 982.619873,401.024445 982.617249,595.469604 
	C982.617188,597.968506 982.640381,600.467346 982.528809,602.965942 
	C982.359253,606.762634 980.953064,609.747559 976.839050,611.435547 
	C976.233826,611.766357 976.015198,611.920654 975.540527,612.360229 
	C974.863159,613.308777 973.799133,613.690613 974.609131,614.950195 
	C976.125183,615.697693 977.427673,615.684204 979.091614,615.388184 
	C982.223694,615.745850 981.691895,617.686279 981.354797,619.864075 
z"/>
<path fill="#36A6EB" opacity="1.000000" stroke="none" 
	d="
M847.403687,680.984497 
	C830.472900,689.949341 813.257996,697.246216 795.424133,704.003906 
	C794.584106,704.430847 793.968567,704.217041 793.225403,704.580688 
	C789.879456,706.859619 786.333313,707.942322 782.389038,708.992554 
	C781.888672,709.131104 781.768921,709.259705 781.388916,709.429504 
	C780.668457,709.645264 780.208252,709.819763 779.375366,710.001343 
	C775.604736,708.026428 773.647217,710.539795 771.243103,712.637085 
	C769.961975,713.264465 768.923523,713.671753 767.547119,714.079163 
	C764.124146,715.116211 764.281555,712.767700 764.270142,711.037537 
	C764.248169,707.709656 764.393616,704.378906 764.393494,701.047363 
	C764.389160,606.776550 764.398376,512.505798 764.365051,418.234985 
	C764.363342,413.408966 764.846619,408.581543 764.239014,403.285004 
	C763.578125,400.931183 763.174683,399.025604 763.177307,396.569641 
	C764.364136,393.611267 764.868958,391.069458 764.517090,388.323029 
	C764.242493,386.179962 764.389343,383.998505 764.389343,381.833649 
	C764.387878,258.261963 764.384033,134.690292 764.411133,11.118608 
	C764.411804,7.990137 763.879944,4.766861 765.701660,1.392148 
	C793.020874,1.000000 820.041809,1.000000 847.531372,1.000000 
	C849.333679,2.464523 849.504150,4.285622 849.571594,6.136938 
	C849.638245,7.969111 849.616211,9.802200 849.616211,11.634933 
	C849.617249,177.090942 849.624512,342.546936 849.612732,508.002960 
	C849.609070,559.599915 849.637695,611.196838 849.618835,662.793762 
	C849.617554,666.291992 849.513062,669.796753 849.987732,673.275940 
	C850.371277,676.087708 849.825317,678.576965 847.403687,680.984497 
z"/>
<path fill="#497AE1" opacity="1.000000" stroke="none" 
	d="
M384.361816,645.097900 
	C383.894623,644.978638 383.702240,644.996460 383.232544,644.930420 
	C382.201508,644.306396 381.298157,644.574402 380.214447,644.206177 
	C370.252075,643.252014 360.851807,640.580444 351.141083,639.714844 
	C342.073669,638.906555 333.032166,637.961365 323.460327,637.818237 
	C322.104187,636.992249 321.137238,636.337097 320.235687,635.601929 
	C318.309326,634.030945 317.924622,632.145813 320.088959,630.677063 
	C323.188202,628.573792 323.491577,625.592224 323.418915,622.342163 
	C323.396606,621.343933 323.420105,620.344482 323.420105,619.345581 
	C323.420135,520.953979 323.411499,422.562408 323.448456,324.170837 
	C323.450104,319.761780 323.951019,315.430939 318.146454,313.979004 
	C316.592163,313.590210 315.649811,311.848450 315.726318,309.610229 
	C318.387329,308.601654 319.627563,307.218903 318.866150,304.152863 
	C323.169006,301.998596 323.424866,298.506287 323.420380,294.659393 
	C323.369324,251.059631 323.381409,207.459763 323.388458,163.859940 
	C323.396698,112.775780 323.369995,61.691612 323.408142,10.607477 
	C323.410339,7.644944 322.934326,4.593239 324.702637,1.390947 
	C353.020905,1.000000 381.041779,1.000000 409.531342,1.000000 
	C411.705475,2.933400 411.564880,5.322105 411.566406,7.640719 
	C411.593567,49.447865 411.595612,91.255028 411.573608,133.062180 
	C411.573425,133.395294 411.593689,133.732117 411.551392,134.060760 
	C411.266083,136.277588 411.939209,139.630035 409.229919,139.963837 
	C406.072632,140.352829 407.178802,136.485626 405.687988,134.510223 
	C402.872284,134.118729 400.526398,134.305939 398.998871,137.110657 
	C398.736908,137.874069 397.852875,138.107925 398.298004,138.757401 
	C398.670410,139.300842 398.041901,138.616180 399.030457,138.671783 
	C400.946991,139.312698 402.534546,139.919846 404.559479,140.568542 
	C409.688904,141.951019 411.704956,145.035049 411.596710,149.898682 
	C411.274170,164.386978 411.852600,178.875214 411.152466,193.377090 
	C410.731293,202.100952 411.438232,210.909363 411.458405,219.655594 
	C411.670532,311.653748 411.590668,403.652557 411.585541,495.651184 
	C411.585388,497.982910 411.664093,500.319336 411.246033,503.081238 
	C410.831238,504.657898 410.161499,505.528351 408.838684,506.327148 
	C407.623596,507.016693 406.438843,507.383484 407.647278,509.085419 
	C408.009766,509.585297 408.162659,509.791901 408.590942,510.296570 
	C411.168030,512.481384 411.526184,515.083008 411.528595,517.818359 
	C411.565247,559.114136 411.573273,600.409912 411.528198,641.705688 
	C411.523804,645.743652 410.469635,648.988220 405.425262,649.921326 
	C403.229858,649.707825 401.478424,649.348572 399.362244,648.865356 
	C398.550659,648.419739 398.095367,648.116150 397.255127,648.045227 
	C393.893311,647.381836 390.806183,646.718384 387.339691,645.938721 
	C386.237976,645.420349 385.491150,645.114807 384.361816,645.097900 
z"/>
<path fill="#3C99E8" opacity="1.000000" stroke="none" 
	d="
M711.271362,726.661499 
	C698.601318,729.684753 685.983032,729.285522 673.389893,729.078918 
	C659.907532,728.857727 646.582642,727.037476 632.996582,724.450562 
	C632.932678,723.602844 632.282532,724.174927 632.735718,723.738708 
	C637.813232,718.850464 636.419861,712.578552 636.421082,706.628479 
	C636.435547,634.845642 636.471191,563.062805 636.347168,491.280182 
	C636.339233,486.689209 637.963440,482.036621 635.922668,477.039246 
	C635.667725,476.291382 635.610474,475.977905 635.624146,475.192871 
	C636.468750,473.187897 636.614136,471.547363 636.562866,469.861847 
	C636.309021,461.533447 636.466980,453.202637 636.452209,444.872986 
	C636.446289,441.500702 636.292908,438.216095 634.249207,435.312744 
	C633.573975,434.353516 633.087708,433.180389 633.482056,432.005463 
	C637.120544,421.164337 636.326782,409.890686 636.352600,398.788452 
	C636.521790,326.149536 636.454102,253.510040 636.404175,180.870773 
	C636.401123,176.392914 637.211243,171.883530 636.058533,166.991791 
	C636.149353,163.548065 638.417480,160.322250 634.892944,157.269394 
	C634.185791,155.565643 634.205017,154.221924 634.765198,152.981674 
	C636.539856,149.052902 636.415710,144.896149 636.415039,140.736877 
	C636.407959,97.188423 636.401611,53.639965 636.429504,10.091525 
	C636.431274,7.295828 636.003296,4.416351 637.706970,1.386723 
	C662.354248,1.000000 686.708435,1.000000 711.531372,1.000000 
	C713.715149,2.924654 713.603943,5.312450 713.602356,7.633135 
	C713.559326,69.769707 713.697571,131.906235 713.543640,194.042984 
	C713.484985,217.695679 713.703491,241.349533 713.492310,265.490234 
	C713.552429,267.907928 713.748291,269.831482 713.800415,272.250427 
	C713.627258,276.233917 713.609680,279.732086 713.609802,283.231445 
	C713.613892,426.693481 713.616089,570.155518 713.601196,713.617554 
	C713.600708,717.921570 714.092773,722.338379 711.271362,726.661499 
z"/>
<path fill="#5166DD" opacity="1.000000" stroke="none" 
	d="
M174.203644,669.637878 
	C154.400787,678.310486 135.139465,687.414978 116.292351,697.389832 
	C114.094795,698.552856 111.883118,699.689209 109.329155,700.882935 
	C106.380219,700.398804 105.861206,698.659180 106.532486,696.426758 
	C107.611855,692.837341 107.392784,689.165955 107.393204,685.508789 
	C107.402077,608.519348 107.334129,531.529785 107.423851,454.540436 
	C107.480347,406.065765 107.246857,357.591248 107.452675,309.117096 
	C107.472420,304.465881 106.408928,299.822723 107.508873,294.759216 
	C107.886612,293.906586 108.048103,293.315704 108.465050,293.117340 
	C112.556641,291.170471 112.634941,288.574524 109.584717,285.061523 
	C107.811562,280.037262 107.387550,275.245728 107.387177,270.393066 
	C107.380455,183.302811 107.381294,96.212547 107.399162,9.122294 
	C107.399666,6.645175 107.118057,4.102588 108.699844,1.394186 
	C133.687561,1.000000 158.375122,1.000000 183.531342,1.000000 
	C186.034485,3.405382 185.575043,6.327395 185.578186,9.104439 
	C185.613556,40.299824 185.597794,71.495255 185.600540,102.690674 
	C185.600800,105.677132 185.553833,108.665222 185.886353,112.106949 
	C186.003586,114.345795 185.671555,116.120354 185.958252,118.329193 
	C184.915482,126.119720 186.183853,133.601486 184.652039,141.290161 
	C183.861176,142.301910 183.130264,142.559723 182.234421,142.374680 
	C180.570969,142.031082 178.935562,140.269028 177.218582,142.186981 
	C176.606415,142.870804 176.560272,143.761719 177.134476,144.477341 
	C178.513809,146.196426 180.188797,145.085999 181.744919,144.816513 
	C182.957642,144.606506 183.596619,145.270416 184.365616,146.521835 
	C185.507263,148.890930 185.853058,150.982254 185.846481,153.196442 
	C185.350113,320.347076 185.757401,487.498138 185.600113,654.648987 
	C185.597015,657.955811 186.081482,661.327209 184.660934,665.015259 
	C184.499176,665.484314 184.375031,665.483337 184.333099,665.437561 
	C183.952087,665.190735 183.663834,665.258789 183.217636,665.723755 
	C183.016312,665.890991 182.580811,666.007690 182.356506,666.030151 
	C180.481110,667.206299 178.604767,666.615356 176.823730,666.715088 
	C175.101883,666.811462 173.927246,667.307312 174.203644,669.637878 
z"/>
<path fill="#4B73DF" opacity="1.000000" stroke="none" 
	d="
M324.531342,1.000000 
	C325.000000,98.826630 324.970825,196.653290 325.083984,294.479797 
	C325.089783,299.497345 325.574707,304.113739 319.092285,305.704071 
	C319.517975,307.046600 319.087128,307.829620 318.289001,308.795471 
	C317.210236,309.150269 315.997131,309.313202 316.443848,310.350861 
	C317.242554,312.206238 318.798431,314.355774 320.799408,313.817657 
	C325.558838,312.537750 325.016388,315.373749 325.015839,318.273163 
	C324.996887,420.490753 324.953339,522.708374 325.149048,624.925598 
	C325.158051,629.638855 322.740448,631.170471 319.038239,632.691895 
	C320.490448,634.400391 323.296692,634.422974 322.991058,637.383545 
	C297.359589,637.425476 272.156525,641.023682 246.725662,646.214722 
	C245.487549,646.020874 244.618301,645.922668 243.688690,644.968872 
	C243.159027,643.698242 243.260574,642.827576 243.943420,641.608826 
	C245.875473,639.219238 245.381561,636.804382 245.381577,634.522827 
	C245.382446,476.272675 245.395203,318.022491 245.398926,159.772324 
	C245.399033,155.453842 245.048996,151.095566 246.551056,146.903351 
	C246.775925,146.275696 246.816025,145.593872 246.734650,144.926453 
	C243.779602,120.690857 245.903076,96.361702 245.468613,72.080116 
	C245.096146,51.264400 245.377060,30.436693 245.408554,9.614344 
	C245.412552,6.975392 245.054398,4.261304 246.703064,1.390813 
	C272.687561,1.000000 298.375122,1.000000 324.531342,1.000000 
z"/>
<path fill="#545FDA" opacity="1.000000" stroke="none" 
	d="
M109.177284,292.594421 
	C107.578644,296.971588 109.046234,301.058838 109.039200,305.140472 
	C108.973175,343.464539 109.000000,381.788788 109.000000,420.112976 
	C109.000000,509.923035 109.005562,599.733093 108.974937,689.543152 
	C108.973953,692.435547 109.728317,695.474487 107.326645,698.045166 
	C106.503357,698.926392 107.799179,699.760254 108.769775,700.654907 
	C92.701492,710.454712 76.404762,719.951050 60.153316,729.524292 
	C54.306976,732.968140 48.569542,736.596985 42.444344,740.254395 
	C38.840218,736.976440 38.348660,732.705322 38.396908,728.317627 
	C38.554344,714.000916 38.298740,699.685181 38.305092,685.368530 
	C38.404652,460.957153 38.371887,236.545746 38.402348,12.134317 
	C38.402817,8.676288 37.776627,5.116064 39.696587,1.397806 
	C62.687561,1.000000 85.375122,1.000000 108.531342,1.000000 
	C109.000000,91.202980 109.006447,181.405960 108.981613,271.608948 
	C108.980324,276.288239 109.815506,280.812897 110.965424,285.728149 
	C110.211456,288.126373 109.026115,290.007446 109.177284,292.594421 
z"/>
<path fill="#2BC2F2" opacity="1.000000" stroke="none" 
	d="
M1055.239624,600.569458 
	C1053.946899,600.882019 1052.891724,601.033264 1051.436035,601.160645 
	C1049.794067,600.313171 1048.608154,600.263062 1047.252441,601.618713 
	C1045.964722,602.070435 1044.931641,602.294312 1043.503418,602.559814 
	C1040.706055,600.121094 1041.424438,596.966125 1041.419556,594.054688 
	C1041.362183,560.065735 1041.383789,526.076599 1041.383667,492.087494 
	C1041.383301,417.444794 1041.360840,342.802032 1041.432983,268.159424 
	C1041.437988,263.005371 1039.956177,257.335632 1045.069946,253.307098 
	C1046.083618,252.508438 1045.353149,251.427856 1044.644653,250.721527 
	C1041.194092,247.281570 1041.386475,242.894669 1041.385986,238.548676 
	C1041.380615,194.896027 1041.384277,151.243362 1041.383667,107.590714 
	C1041.383179,75.101143 1041.372314,42.611568 1041.402466,10.122023 
	C1041.405029,7.318977 1040.989136,4.433877 1042.700684,1.393115 
	C1070.020874,1.000000 1097.041870,1.000000 1124.531372,1.000000 
	C1126.465942,2.615252 1126.533569,4.629101 1126.585693,6.637802 
	C1126.646240,8.970281 1126.615845,11.303843 1126.615845,13.636937 
	C1126.616821,186.122467 1126.617432,358.607971 1126.613037,531.093506 
	C1126.612915,534.925354 1126.827026,538.774719 1126.333618,542.580872 
	C1125.967041,545.408203 1126.515259,547.860229 1128.614136,550.437378 
	C1129.677246,552.383545 1129.458496,553.915100 1128.662598,555.845642 
	C1126.495972,558.202026 1126.557983,560.718628 1126.440063,563.231567 
	C1125.988037,572.858154 1127.454346,582.537170 1125.468506,592.135193 
	C1124.921143,594.781067 1128.491699,597.137756 1126.194214,600.427124 
	C1103.289673,598.254089 1080.661499,597.897095 1057.574951,600.302124 
	C1056.566528,600.121094 1056.010864,600.110596 1055.239624,600.569458 
z"/>
<path fill="#28C8F3" opacity="1.000000" stroke="none" 
	d="
M1126.263672,600.843262 
	C1125.556763,598.562744 1127.418701,595.531555 1123.375244,594.822327 
	C1121.952881,594.572815 1122.217529,593.279114 1123.049805,592.571533 
	C1125.457520,590.524719 1124.994141,587.808594 1124.996826,585.185913 
	C1125.005371,576.880432 1124.964233,568.574585 1125.030396,560.269653 
	C1125.043457,558.620605 1124.220581,556.366821 1127.510254,556.018616 
	C1129.220215,555.596191 1130.939941,556.073975 1131.575928,553.975342 
	C1131.533203,552.797180 1130.967773,552.418823 1129.599121,552.148865 
	C1125.037231,549.919800 1122.918457,547.157654 1124.834595,542.328674 
	C1125.465942,540.737793 1124.997070,538.702271 1124.997192,536.870117 
	C1125.000244,358.559174 1125.000000,180.248245 1125.000000,1.468657 
	C1149.020874,1.000000 1173.041870,1.000000 1197.531372,1.000000 
	C1200.044312,3.413270 1199.584961,6.346426 1199.588745,9.134444 
	C1199.625610,36.451954 1199.609741,63.769527 1199.610107,91.087082 
	C1199.610840,169.512680 1199.609985,247.938263 1199.610229,326.363861 
	C1199.610596,418.118317 1199.611084,509.872803 1199.605469,601.627258 
	C1199.605347,604.290405 1199.737915,606.962585 1199.362061,609.611694 
	C1198.843506,613.266663 1197.114502,615.496704 1192.528564,614.845215 
	C1172.046265,609.652161 1152.041992,604.503174 1131.541382,601.622437 
	C1129.902954,601.392151 1128.262085,601.178345 1126.263672,600.843262 
z"/>
<path fill="#408EE6" opacity="1.000000" stroke="none" 
	d="
M587.322510,713.095093 
	C579.182495,712.171143 572.234314,708.856262 565.031555,706.497559 
	C551.154968,701.953369 537.470215,696.823364 523.382080,691.722656 
	C523.512268,687.526611 523.375305,683.526794 523.375671,679.533569 
	C523.385071,581.880554 523.382385,484.227570 523.385193,386.574585 
	C523.385315,382.080353 523.137634,377.561859 524.593506,373.196564 
	C525.217163,371.326599 524.518311,369.579773 524.044861,367.818787 
	C523.431824,365.538635 523.390564,363.206970 523.390137,360.871918 
	C523.379211,303.046692 523.378662,245.221466 523.390259,187.396240 
	C523.390503,185.896286 523.411072,184.396454 523.610901,182.450562 
	C523.962952,180.303101 524.848511,178.857254 525.834351,177.033722 
	C525.801453,176.167633 527.627930,176.275375 526.073486,175.252975 
	C525.001953,174.578964 524.470642,173.943451 524.064758,172.671005 
	C523.497559,167.920700 523.395386,163.600952 523.395752,159.274933 
	C523.399841,109.716713 523.390076,60.158482 523.419617,10.600274 
	C523.421326,7.640042 522.940063,4.590239 524.704041,1.389729 
	C545.687561,1.000000 566.375122,1.000000 587.531372,1.000000 
	C590.323975,3.911541 589.578979,7.371702 589.580688,10.631528 
	C589.620850,88.238914 589.613586,165.846329 589.608704,243.453735 
	C589.608154,251.611526 589.821655,259.775848 588.900513,268.318970 
	C587.774414,271.857910 585.046692,269.469086 583.092712,270.470703 
	C582.987976,272.815216 585.216248,272.943237 586.808594,274.182983 
	C588.766785,275.888672 589.051819,277.864746 589.264099,279.873352 
	C589.615051,283.192688 589.617554,286.523560 589.617554,289.855164 
	C589.617798,427.594086 589.625427,565.333008 589.572144,703.071899 
	C589.570862,706.453552 590.559937,710.132629 587.322510,713.095093 
z"/>
<path fill="#25CFF5" opacity="1.000000" stroke="none" 
	d="
M1192.374512,615.026367 
	C1197.359131,614.252869 1198.099365,610.921692 1198.091675,606.169189 
	C1197.963379,526.529663 1198.038940,446.889862 1197.942505,367.250305 
	C1197.932373,358.857300 1198.470825,350.483582 1197.605347,342.014984 
	C1197.234619,338.386780 1197.956909,334.059753 1197.960083,330.065430 
	C1198.015381,260.255768 1198.000000,190.446091 1198.000000,120.636398 
	C1198.000000,81.070038 1198.000000,41.503677 1198.000000,1.468657 
	C1221.020874,1.000000 1244.041870,1.000000 1267.531372,1.000000 
	C1270.230835,3.749130 1269.568481,7.036080 1269.570312,10.138107 
	C1269.607544,72.610901 1269.598022,135.083725 1269.597656,197.556534 
	C1269.597412,238.205505 1269.613159,278.854492 1269.573120,319.503418 
	C1269.569824,322.932404 1270.109619,326.526520 1266.937378,329.227875 
	C1265.138306,330.759766 1266.966431,331.515869 1268.050659,332.053833 
	C1271.456665,333.743713 1272.341797,336.406403 1271.496094,339.941437 
	C1269.025024,350.268677 1269.603271,360.789093 1269.602173,371.267944 
	C1269.593750,455.231415 1269.608398,539.194885 1269.568359,623.158325 
	C1269.566528,627.236938 1270.336060,631.623901 1266.237427,634.989380 
	C1265.371338,635.500793 1264.684570,635.378052 1264.454346,635.865540 
	C1266.954468,636.850159 1269.455322,637.615234 1268.149414,641.203735 
	C1252.150146,635.691650 1236.450684,629.833252 1220.651367,624.258118 
	C1211.420898,621.001038 1202.030640,618.196533 1192.374512,615.026367 
z"/>
<path fill="#4582E3" opacity="1.000000" stroke="none" 
	d="
M403.782532,133.873947 
	C405.877045,130.899292 407.182739,132.091309 407.857330,134.517166 
	C408.283112,136.048294 408.164703,137.730728 408.290375,139.345306 
	C408.860046,139.336624 409.429688,139.327957 409.999359,139.319290 
	C409.999359,93.525299 409.999359,47.731308 409.999695,1.468657 
	C430.687561,1.000000 451.375122,1.000000 472.531342,1.000000 
	C474.937775,3.250946 474.583130,6.004924 474.584534,8.635871 
	C474.611725,59.104595 474.632294,109.573357 474.593811,160.042068 
	C474.552277,214.489288 474.632690,268.936462 474.609589,323.383667 
	C474.583588,384.679016 474.636322,445.974426 474.593109,507.269745 
	C474.558990,555.674500 474.660889,604.079224 474.605072,652.483948 
	C474.600861,656.149841 474.622711,659.813293 473.876160,663.431519 
	C472.674408,669.255920 468.678497,671.253540 463.713623,667.925964 
	C460.584442,665.828796 457.357544,665.281677 453.373230,665.172241 
	C437.098450,660.363831 421.524750,654.783875 405.257629,650.307312 
	C405.111938,648.983215 405.539795,648.130127 406.764496,648.043396 
	C409.732208,647.832947 410.013000,645.826050 410.011902,643.458069 
	C409.992218,600.907471 410.003510,558.356934 409.977692,515.806335 
	C409.976685,514.165100 410.706787,512.218933 407.366272,512.456726 
	C405.251587,512.607239 407.139343,510.538818 407.187988,509.132568 
	C408.173462,507.944122 409.353180,507.343353 409.732483,505.687347 
	C409.909027,503.901031 409.992920,502.402771 409.993042,500.904510 
	C409.999298,405.598145 409.997742,310.291779 410.004730,214.985397 
	C410.004883,212.646652 410.156769,210.308365 408.447113,208.359863 
	C408.048828,207.905899 407.482788,207.008774 407.657257,206.728683 
	C412.384979,199.137787 408.821686,190.773636 409.784088,182.821411 
	C410.757874,174.774918 409.998749,166.518677 409.998749,158.354324 
	C409.998749,156.188278 409.697113,153.970657 410.056793,151.866089 
	C411.033081,146.153717 408.845551,142.678452 403.082581,140.941864 
	C403.582581,138.535049 404.698212,136.511780 403.782532,133.873947 
z"/>
<path fill="#4E6DDE" opacity="1.000000" stroke="none" 
	d="
M243.590485,644.706299 
	C244.486755,645.162048 245.161285,645.410645 246.078064,645.938599 
	C246.320328,646.217957 246.235428,646.212708 246.201782,646.186707 
	C245.622375,646.337158 245.068771,646.481506 244.262634,646.726685 
	C229.378098,651.134583 214.588135,654.905823 200.231674,660.117310 
	C195.239502,661.929565 190.218369,663.661987 184.854813,665.457581 
	C183.644211,663.051636 184.017075,660.528625 184.016800,658.047546 
	C183.998260,492.429291 184.005096,326.811035 183.976318,161.192780 
	C183.975418,156.023285 185.036209,150.761383 182.975861,145.315277 
	C182.360168,144.281860 182.241318,143.527756 182.650513,142.371582 
	C184.973038,139.993256 183.795639,137.400467 183.960297,135.062241 
	C184.336517,129.720154 183.285828,124.289497 184.982925,118.615311 
	C185.783295,117.245110 188.410995,116.686348 185.457489,114.760132 
	C183.892654,112.286705 183.988327,109.791061 183.989441,107.285973 
	C184.005005,72.169762 184.000000,37.053535 184.000000,1.468657 
	C204.687561,1.000000 225.375122,1.000000 246.531342,1.000000 
	C247.000000,45.662716 247.014450,90.325447 246.971039,134.988113 
	C246.967773,138.354965 247.314529,141.587387 248.686188,144.677826 
	C248.938293,145.245834 249.494843,146.186005 249.318237,146.363007 
	C244.651535,151.039673 247.134842,156.868378 247.129425,162.043503 
	C246.969742,314.363190 246.988541,466.683075 247.035172,619.002930 
	C247.037415,626.310425 246.444916,633.640015 247.473129,640.934204 
	C247.889648,643.888977 246.200897,642.906738 244.447540,642.154419 
	C242.218521,642.320435 241.863846,643.124939 243.590485,644.706299 
z"/>
<path fill="#39A1EA" opacity="1.000000" stroke="none" 
	d="
M712.443848,267.313416 
	C712.074341,247.387650 712.008972,227.572617 712.005127,207.757568 
	C711.991882,139.150818 712.000000,70.544067 712.000000,1.468657 
	C729.687561,1.000000 747.375122,1.000000 765.531372,1.000000 
	C766.000000,129.157852 765.996155,257.315704 766.029236,385.473541 
	C766.029846,387.902039 765.603149,390.329132 767.068359,392.734375 
	C769.077942,396.033173 763.821960,394.114502 764.025696,396.766357 
	C763.377258,397.445312 762.730408,397.477142 762.085571,397.544586 
	C760.330261,397.728149 758.672607,398.311951 758.964905,400.416046 
	C759.273010,402.633728 761.033386,402.534790 762.745850,402.082397 
	C763.216370,401.958099 763.687439,401.841400 764.507019,401.869812 
	C766.308289,403.074585 766.680908,404.769440 766.617676,406.379089 
	C765.160400,443.485352 766.173950,480.604736 766.055176,517.716370 
	C765.854187,580.508972 765.966553,643.302795 766.119751,706.095703 
	C766.126038,708.663635 764.349243,711.437500 766.837402,714.006348 
	C749.305603,720.658630 730.845520,724.888672 711.489990,727.139893 
	C710.768921,726.176025 708.873535,725.352844 709.607178,724.855652 
	C713.756042,722.043762 711.911682,717.932922 711.914062,714.475525 
	C712.014282,569.236145 711.997314,423.996674 712.026428,278.757202 
	C712.026855,276.635071 711.483521,274.423218 712.946106,272.110962 
	C714.120850,270.639252 716.696411,270.748413 716.084534,268.577728 
	C715.649780,267.035400 713.960999,267.622131 712.443848,267.313416 
z"/>
<path fill="#2EBBF0" opacity="1.000000" stroke="none" 
	d="
M1042.531372,1.000000 
	C1043.000000,80.947838 1042.999878,160.895676 1043.000000,240.843506 
	C1043.000000,244.832291 1042.422241,249.055405 1047.704102,250.556183 
	C1048.700562,250.839340 1048.960815,252.014969 1048.908569,253.086746 
	C1048.833008,254.635132 1047.795654,254.986282 1046.516968,254.989578 
	C1043.588379,254.997147 1042.874512,256.790070 1043.000732,259.286835 
	C1043.017456,259.619049 1043.000244,259.952942 1043.000366,260.286041 
	C1043.019043,374.044891 1043.037842,487.803772 1043.082520,602.082031 
	C1022.293884,606.832153 1001.953613,612.713623 981.694641,620.172058 
	C978.912659,619.604126 982.096863,616.651245 979.279175,616.045288 
	C978.669678,615.703918 978.489136,615.349976 978.479614,614.638306 
	C978.262817,613.904114 979.544495,614.152832 978.569885,613.496521 
	C977.146484,613.249023 976.024109,613.369202 974.569885,613.241821 
	C973.716980,611.038513 974.596924,610.207886 976.703796,609.849121 
	C979.823486,609.317871 981.023560,607.056030 980.999329,604.033936 
	C980.987366,602.535034 980.999817,601.035950 980.999817,599.536987 
	C981.000000,400.337097 981.000000,201.137207 981.000000,1.468657 
	C1001.354248,1.000000 1021.708496,1.000000 1042.531372,1.000000 
z"/>
<path fill="#3F93E7" opacity="1.000000" stroke="none" 
	d="
M587.106567,713.358276 
	C588.630737,711.728760 587.973999,709.745972 587.974304,708.002869 
	C588.002197,566.919800 588.020752,425.836700 587.875854,284.753784 
	C587.872375,281.364319 589.325562,277.126801 585.174561,274.219910 
	C584.591980,272.403351 585.749023,271.529816 586.704712,270.243011 
	C587.806946,265.932800 587.996643,261.788361 587.996826,257.631714 
	C588.001038,172.400253 588.000000,87.168777 588.000000,1.468657 
	C604.354248,1.000000 620.708435,1.000000 637.531372,1.000000 
	C638.000000,48.383942 638.002930,95.767883 637.994446,143.151825 
	C637.993774,146.934769 638.610229,150.843124 635.648560,154.030014 
	C634.656433,155.097656 635.812012,156.216125 635.968689,157.671738 
	C633.786926,159.559860 633.229248,161.721725 633.507751,164.553986 
	C632.966370,165.569687 632.032104,165.567825 631.233276,166.518005 
	C632.840942,166.685745 633.196655,165.599976 634.039001,164.672363 
	C634.982544,164.178497 635.669861,164.163971 636.654114,164.592194 
	C639.239014,168.738266 637.986267,172.984238 637.987183,177.106537 
	C638.004639,253.360123 638.001343,329.613708 637.996033,405.867279 
	C637.995728,409.677734 638.169006,413.482239 637.062500,417.234802 
	C636.313293,419.775757 636.287415,422.342926 637.402466,424.956116 
	C638.422974,427.347809 638.754272,429.801208 635.431580,431.098724 
	C633.228821,431.958862 633.929688,433.567047 635.299805,434.506317 
	C637.916931,436.300476 637.933044,438.835266 638.030884,441.560944 
	C638.405945,452.010040 637.071533,462.499664 638.775085,472.916229 
	C639.038147,474.524902 638.002197,474.911957 636.304260,475.013733 
	C634.193787,475.585907 632.176331,475.834686 632.419739,478.746155 
	C632.228210,479.611145 631.740356,480.419891 632.318787,480.654388 
	C633.206116,481.014038 633.519958,480.075073 633.949707,479.087860 
	C634.364929,477.896149 634.761719,477.075775 635.677368,476.192352 
	C638.523010,477.340454 639.506409,479.188232 638.532654,482.156830 
	C637.981445,483.837585 638.019775,485.755646 638.019226,487.566864 
	C637.996765,562.832520 637.999817,638.098206 638.000549,713.363892 
	C638.000549,716.117493 637.568115,718.948059 641.008484,721.701355 
	C637.181580,721.740234 634.364075,720.596680 632.978882,724.017822 
	C618.324463,722.587341 604.588806,718.315918 590.734497,714.560791 
	C589.614929,714.257324 588.502197,713.928955 587.106567,713.358276 
z"/>
<path fill="#4388E5" opacity="1.000000" stroke="none" 
	d="
M453.157990,665.482483 
	C456.700592,663.201843 460.517700,662.759460 463.552948,666.354797 
	C465.639709,668.826599 468.109406,668.086243 470.419189,667.763794 
	C472.762177,667.436707 471.574341,665.054626 472.090759,663.628052 
	C473.260101,660.397705 472.995728,657.067078 472.996216,653.751160 
	C473.002075,613.599243 473.447754,573.440125 472.801086,533.298645 
	C472.501526,514.703796 473.550720,496.152039 473.100494,477.564880 
	C472.644745,458.749512 473.000000,439.914490 473.000000,421.088074 
	C473.000000,402.261658 473.000000,383.435242 473.000000,364.608826 
	C473.000000,345.782410 473.000000,326.955963 473.000000,308.129547 
	C473.000000,289.303131 473.000000,270.476715 473.000000,251.650299 
	C473.000000,232.823883 473.237030,213.993073 472.889496,195.173080 
	C472.739288,187.037628 473.114899,178.878937 472.189880,170.725464 
	C471.832550,167.575546 473.042389,164.228699 473.038879,160.878860 
	C472.983551,107.898392 473.000000,54.917847 473.000000,1.468657 
	C490.020905,1.000000 507.041779,1.000000 524.531372,1.000000 
	C525.000000,54.953228 525.028381,108.906509 524.933289,162.859558 
	C524.927246,166.293289 526.286560,169.721634 525.010437,173.543427 
	C523.382751,175.670532 521.663086,177.403336 524.821045,179.716064 
	C525.003235,240.789261 524.999084,301.594910 525.009949,362.400574 
	C525.010376,364.694061 524.618103,367.047394 526.356812,369.067719 
	C527.272522,370.131775 527.460693,371.852692 526.766602,372.867737 
	C523.945679,376.993164 525.047974,381.570282 525.045349,385.951843 
	C524.986328,485.406555 525.005859,584.861328 524.962219,684.316040 
	C524.961243,686.555359 525.780090,689.014771 523.495728,691.258301 
	C503.141571,684.049805 483.229187,676.579224 463.304077,669.142700 
	C460.040466,667.924683 456.720673,666.857300 453.157990,665.482483 
z"/>
<path fill="#23D5F6" opacity="1.000000" stroke="none" 
	d="
M1268.159912,641.638184 
	C1268.969482,637.442566 1264.179932,638.087463 1263.158447,635.315857 
	C1266.691772,634.538452 1268.064209,632.231018 1268.002563,628.759338 
	C1267.978882,627.426575 1268.000000,626.093079 1268.000000,624.759888 
	C1268.000122,534.270020 1268.028564,443.780182 1267.923096,353.290466 
	C1267.917236,348.311981 1269.020020,343.457550 1270.150757,338.889801 
	C1271.156494,334.826050 1269.617310,334.127289 1267.051880,333.222504 
	C1265.317383,332.610840 1262.774658,333.430878 1263.013794,330.191650 
	C1263.189209,327.816345 1264.218140,327.036774 1266.622925,327.520142 
	C1268.005615,327.798065 1267.941040,326.360687 1267.977661,325.400452 
	C1268.028442,324.069092 1267.999512,322.734589 1267.999634,321.401428 
	C1268.000000,214.913391 1268.000000,108.425354 1268.000000,1.468657 
	C1282.490967,1.000000 1296.982422,1.052564 1311.472534,0.941143 
	C1313.553711,0.925140 1314.445190,1.272289 1314.024780,3.474627 
	C1313.871338,4.278148 1314.000000,5.135527 1314.000000,5.968343 
	C1314.000000,223.666458 1314.000000,441.364563 1314.000000,659.531372 
	C1298.809448,653.948364 1283.619019,647.896790 1268.159912,641.638184 
z"/>
<path fill="#5659DA" opacity="1.000000" stroke="none" 
	d="
M39.531342,1.000000 
	C40.000000,230.073563 40.000000,459.147125 40.000000,688.220703 
	C40.000000,695.306030 39.803497,702.398193 40.047142,709.475098 
	C40.392204,719.497803 38.467224,729.686218 42.076294,739.931030 
	C28.633667,748.874695 15.161036,757.381958 1.344203,765.944580 
	C1.000000,512.471436 1.011498,258.942841 0.894304,5.414314 
	C0.892485,1.478324 1.977244,0.825551 5.582938,0.907441 
	C16.737799,1.160784 27.902067,1.000000 39.531342,1.000000 
z"/>
<path fill="#34ACED" opacity="1.000000" stroke="none" 
	d="
M847.496338,681.314331 
	C849.540405,676.248840 847.954041,670.866455 847.961731,665.599060 
	C848.028198,619.946838 848.017212,574.294373 847.940063,528.642151 
	C847.936829,526.726440 849.217346,524.195557 846.325317,522.957153 
	C845.507629,522.606995 845.714233,521.912781 846.159790,521.348816 
	C849.064941,517.671082 847.958313,513.345398 847.959473,509.278595 
	C848.006836,340.164825 848.000000,171.051071 848.000000,1.468657 
	C860.354248,1.000000 872.708435,1.000000 885.531372,1.000000 
	C886.000488,59.685169 886.001038,118.370338 886.002380,177.523651 
	C885.696777,179.784607 885.156128,181.576035 885.986816,183.724548 
	C886.001282,312.664520 885.998779,441.255341 886.011963,569.846191 
	C886.012207,572.627014 885.507629,575.504944 887.795349,577.861572 
	C890.219055,580.358276 885.731873,579.699219 886.049683,581.660645 
	C884.770813,582.914246 882.356323,582.097473 882.105652,584.296265 
	C881.853027,586.513000 884.086060,586.505127 885.648071,587.520935 
	C885.937866,607.159119 885.974365,626.571350 885.988464,645.983643 
	C885.989502,647.433838 886.142517,648.834534 884.819458,650.085327 
	C881.568115,653.159180 884.523987,652.859253 886.926636,652.992065 
	C890.055603,654.575806 892.879822,656.033325 895.042114,658.644409 
	C882.251953,665.003235 869.562195,671.033569 856.509644,677.111328 
	C853.600403,678.958069 850.763123,680.164917 847.496338,681.314331 
z"/>
<path fill="#D9EBFB" opacity="1.000000" stroke="none" 
	d="
M895.251831,658.976929 
	C892.854797,656.685852 889.508240,656.099182 887.468018,653.268738 
	C887.945374,648.781128 890.192688,648.524414 893.601074,650.730164 
	C894.176025,651.196045 894.486389,651.471802 894.943176,652.034363 
	C895.407104,652.558289 895.704102,652.818726 896.193726,653.137085 
	C898.317688,653.587463 898.070007,655.088806 898.050537,656.889893 
	C897.461914,658.226868 896.645203,658.801880 895.251831,658.976929 
z"/>
<path fill="#4E6DDE" opacity="1.000000" stroke="none" 
	d="
M174.356247,669.880493 
	C174.320328,667.990051 171.639023,668.390015 171.477936,666.543701 
	C174.747513,665.547668 177.957489,664.767456 181.728668,666.031372 
	C180.282593,668.535156 177.166595,668.544250 174.356247,669.880493 
z"/>
<path fill="#39A1EA" opacity="1.000000" stroke="none" 
	d="
M771.362305,712.853516 
	C771.168579,709.657410 775.055115,709.250854 775.706177,706.115112 
	C776.819580,707.393555 777.719238,708.426453 778.810730,709.733887 
	C776.576477,710.955505 774.150391,711.902710 771.362305,712.853516 
z"/>
<path fill="#34ACED" opacity="1.000000" stroke="none" 
	d="
M898.348389,657.131348 
	C896.420715,656.679443 897.118469,655.049377 896.491821,653.569946 
	C898.809937,653.711792 901.350708,650.448242 903.865967,653.750610 
	C902.239319,655.037903 900.444580,655.996521 898.348389,657.131348 
z"/>
<path fill="#2EBBF0" opacity="1.000000" stroke="none" 
	d="
M1047.349609,601.891235 
	C1047.328125,600.441467 1047.410889,598.712952 1049.194214,598.454529 
	C1050.290161,598.295776 1050.732422,599.448364 1050.997681,600.793213 
	C1050.061401,601.975586 1048.854248,601.842529 1047.349609,601.891235 
z"/>
<path fill="#2EBBF0" opacity="1.000000" stroke="none" 
	d="
M1055.284912,600.786560 
	C1055.250488,599.701721 1055.539062,598.749939 1056.992920,600.029297 
	C1056.611572,600.474365 1056.089478,600.658386 1055.284912,600.786560 
z"/>
<path fill="#4388E5" opacity="1.000000" stroke="none" 
	d="
M384.340973,645.137329 
	C385.063019,644.453918 386.006958,644.156799 386.840576,645.593140 
	C386.171906,645.652954 385.383423,645.483398 384.340973,645.137329 
z"/>
<path fill="#4582E3" opacity="1.000000" stroke="none" 
	d="
M397.179169,648.246094 
	C397.704010,647.028259 398.355316,646.962891 398.952942,648.466492 
	C398.457581,648.643127 397.917725,648.544922 397.179169,648.246094 
z"/>
<path fill="#4388E5" opacity="1.000000" stroke="none" 
	d="
M380.201782,644.225464 
	C380.802643,644.141235 381.655365,644.258057 382.731628,644.610657 
	C382.121338,644.706482 381.287476,644.566467 380.201782,644.225464 
z"/>
<path fill="#39A1EA" opacity="1.000000" stroke="none" 
	d="
M793.289185,704.743286 
	C793.047424,703.614990 793.522705,703.228455 794.814392,703.939819 
	C794.561523,704.265137 794.069336,704.500427 793.289185,704.743286 
z"/>
<path fill="#4B73DF" opacity="1.000000" stroke="none" 
	d="
M244.326813,646.915405 
	C244.535248,646.617493 245.046387,646.350220 245.862823,646.121826 
	C245.655243,646.422485 245.142365,646.684265 244.326813,646.915405 
z"/>
<path fill="#39A1EA" opacity="1.000000" stroke="none" 
	d="
M781.311157,709.487305 
	C781.280945,709.298340 781.464661,709.171387 781.844116,709.046143 
	C781.911621,709.246521 781.740051,709.413635 781.311157,709.487305 
z"/>
<path fill="#4E6DDE" opacity="1.000000" stroke="none" 
	d="
M183.273865,665.953125 
	C183.273254,665.684326 183.530212,665.477661 184.039154,665.331421 
	C184.037903,665.599609 183.784668,665.807434 183.273865,665.953125 
z"/>
<path fill="#6DCAF5" opacity="1.000000" stroke="none" 
	d="
M941.746582,552.082153 
	C940.716858,549.647949 940.839294,547.826294 943.396606,547.158386 
	C944.845581,546.779968 946.474121,546.778503 947.371826,548.239441 
	C948.265747,549.694214 948.515991,551.430420 947.094177,552.717163 
	C945.390259,554.259155 943.570496,554.273926 941.746582,552.082153 
z"/>
<path fill="#87C7F4" opacity="1.000000" stroke="none" 
	d="
M886.068176,587.442505 
	C882.996399,588.214355 880.251709,587.630615 880.379028,584.233032 
	C880.474976,581.672729 882.571106,580.373352 885.670959,581.869629 
	C887.562500,583.643982 887.077454,585.382874 886.068176,587.442505 
z"/>
<path fill="#6DCAF5" opacity="1.000000" stroke="none" 
	d="
M886.396973,184.057037 
	C883.590393,182.394699 883.230042,180.500946 885.702515,178.166946 
	C888.147461,178.143570 890.589661,178.140564 890.813599,180.991196 
	C891.027222,183.711182 888.915894,184.042206 886.396973,184.057037 
z"/>
<path fill="#9ECAF3" opacity="1.000000" stroke="none" 
	d="
M979.228271,613.685547 
	C979.062805,614.415588 979.020874,614.869263 978.967834,615.664490 
	C977.685852,617.316956 976.341187,617.116760 974.688232,616.030823 
	C973.318665,615.486694 973.381531,614.650330 973.854675,613.432007 
	C974.132385,613.102966 974.182800,613.118591 974.207703,613.132568 
	C975.562866,612.431885 976.886597,611.669739 978.678711,612.777344 
	C979.063171,613.126831 979.207458,613.267944 979.228271,613.685547 
z"/>
<path fill="#87C7F4" opacity="1.000000" stroke="none" 
	d="
M967.556396,427.884338 
	C966.748047,429.629944 966.025452,431.490356 963.921326,430.011292 
	C962.880310,429.279572 962.620361,427.796997 963.440002,426.905914 
	C964.886719,425.333191 966.371826,425.912903 967.556396,427.884338 
z"/>
<path fill="#87C7F4" opacity="1.000000" stroke="none" 
	d="
M904.745178,540.286377 
	C906.427917,540.036377 908.293396,539.891296 907.696228,542.165222 
	C907.321289,543.592896 906.161682,544.387268 904.813782,542.286865 
	C904.478394,541.530640 904.427124,541.064758 904.745178,540.286377 
z"/>
<path fill="#2EBBF0" opacity="1.000000" stroke="none" 
	d="
M973.773743,613.115723 
	C974.177917,613.795044 974.223389,614.487183 974.341919,615.519775 
	C973.484741,615.880005 972.485901,615.952087 972.223572,614.750854 
	C972.023926,613.836731 972.569702,613.341431 973.773743,613.115723 
z"/>
<path fill="#34ACED" opacity="1.000000" stroke="none" 
	d="
M904.671448,540.030518 
	C904.918213,540.436401 904.881409,540.881470 904.766968,541.652710 
	C904.063477,541.867493 903.359192,541.722351 903.455017,540.927795 
	C903.493469,540.608826 904.061157,540.353760 904.671448,540.030518 
z"/>
<path fill="#34ACED" opacity="1.000000" stroke="none" 
	d="
M894.972412,652.009094 
	C894.751526,652.064880 894.392883,651.831970 893.937866,651.273438 
	C894.172546,651.205261 894.503662,651.462830 894.972412,652.009094 
z"/>
<path fill="#34ACED" opacity="1.000000" stroke="none" 
	d="
M895.551331,649.466919 
	C895.585205,649.523254 895.517456,649.410645 895.551331,649.466919 
z"/>
<path fill="#CEE9FA" opacity="1.000000" stroke="none" 
	d="
M784.145935,505.276520 
	C789.151917,502.242767 790.990417,503.010040 792.001587,508.623932 
	C792.100586,509.212799 792.180298,509.419403 791.956909,509.761749 
	C787.131775,512.338074 786.029358,511.863007 784.352356,506.421692 
	C784.112610,505.850342 783.911072,505.625000 784.145935,505.276520 
z"/>
<path fill="#CEE9FA" opacity="1.000000" stroke="none" 
	d="
M842.613220,524.950989 
	C842.117859,526.300598 841.734985,527.371155 841.176758,528.672363 
	C840.623962,529.508057 840.221069,530.084595 839.233704,530.009094 
	C835.836792,529.150391 834.285400,527.246094 835.401672,524.175720 
	C836.503906,521.143799 838.915222,522.126587 841.395630,523.236023 
	C842.451538,523.515930 842.656494,524.038696 842.613220,524.950989 
z"/>
<path fill="#AAD9F6" opacity="1.000000" stroke="none" 
	d="
M786.216797,188.132568 
	C784.895874,185.388779 785.009949,183.281998 787.907288,181.642288 
	C788.332214,180.774933 788.753845,180.520355 789.634766,181.039505 
	C791.919983,182.429138 793.423279,183.787720 792.883179,186.394409 
	C792.409851,188.678543 790.731384,189.066177 788.376343,189.038757 
	C787.202393,189.463974 786.774597,188.977707 786.216797,188.132568 
z"/>
<path fill="#87C7F4" opacity="1.000000" stroke="none" 
	d="
M764.873169,401.589783 
	C762.951965,403.327789 761.107178,405.010864 758.667725,402.946686 
	C757.404236,401.877594 756.770569,400.601990 757.635315,398.998962 
	C758.895935,396.661804 760.638489,395.475159 763.645447,396.970703 
	C764.716980,398.390564 765.127686,399.736786 764.873169,401.589783 
z"/>
<path fill="#AAD9F6" opacity="1.000000" stroke="none" 
	d="
M834.946350,128.714417 
	C834.184326,129.175064 833.785156,129.465134 833.407898,129.781448 
	C831.325073,131.527802 829.408752,131.134674 827.899780,129.099899 
	C826.545288,127.273323 827.280579,125.277336 828.973083,124.458778 
	C831.661865,123.158394 833.729004,124.342018 834.720703,127.600098 
	C834.962646,128.150055 835.140930,128.352997 834.946350,128.714417 
z"/>
<path fill="#87C7F4" opacity="1.000000" stroke="none" 
	d="
M778.627930,552.646118 
	C780.801636,554.042847 781.565308,555.466919 780.001465,557.351685 
	C779.124878,558.408142 778.005493,559.315613 776.588867,558.549683 
	C774.703918,557.530396 773.388184,556.114929 774.916260,553.459351 
	C775.952454,552.157410 777.036133,551.988403 778.627930,552.646118 
z"/>
<path fill="#87C7F4" opacity="1.000000" stroke="none" 
	d="
M796.440979,26.396976 
	C798.445557,28.364813 798.149353,29.890741 795.919434,30.733322 
	C794.406067,31.305134 792.676453,30.853247 792.391052,29.107841 
	C791.932129,26.300064 793.814636,25.838541 796.440979,26.396976 
z"/>
<path fill="#AAD9F6" opacity="1.000000" stroke="none" 
	d="
M789.617126,288.191162 
	C792.166443,287.622314 794.530090,287.394623 793.958496,291.485413 
	C793.693115,292.063293 793.521973,292.230896 793.007874,292.507385 
	C791.953491,292.870544 791.254211,292.838287 790.262268,292.334656 
	C789.828796,291.344330 789.699768,290.546814 789.450928,289.363892 
	C789.386108,288.800171 789.441040,288.621826 789.617126,288.191162 
z"/>
<path fill="#39A1EA" opacity="1.000000" stroke="none" 
	d="
M778.987305,552.509460 
	C777.946594,552.936890 776.893799,552.992981 775.449829,553.099243 
	C775.085083,551.921021 774.755798,550.467712 776.508362,550.134644 
	C778.031006,549.845215 778.925293,550.519165 778.987305,552.509460 
z"/>
<path fill="#39A1EA" opacity="1.000000" stroke="none" 
	d="
M789.973633,292.516327 
	C790.682373,292.171021 791.406799,292.200226 792.493652,292.224182 
	C793.034973,292.328979 793.213928,292.439026 793.194214,292.793671 
	C792.859802,294.101135 793.289490,295.638794 791.668335,295.732239 
	C789.634277,295.849457 790.174561,294.073730 789.973633,292.516327 
z"/>
<path fill="#34ACED" opacity="1.000000" stroke="none" 
	d="
M838.072754,126.980759 
	C838.319153,125.883980 838.599976,124.931320 839.576050,125.880821 
	C840.166809,126.455467 840.165100,127.488815 839.585999,128.065216 
	C838.623474,129.023148 838.329102,128.077148 838.072754,126.980759 
z"/>
<path fill="#39A1EA" opacity="1.000000" stroke="none" 
	d="
M770.000183,545.399048 
	C771.173096,545.822510 772.112122,546.310425 771.311157,547.469177 
	C771.129883,547.731506 770.381470,547.860657 770.046143,547.710754 
	C768.884155,547.191528 768.935974,546.346130 770.000183,545.399048 
z"/>
<path fill="#34ACED" opacity="1.000000" stroke="none" 
	d="
M839.002808,530.121155 
	C839.486450,529.505127 839.975830,529.264343 840.733276,528.963318 
	C840.662903,530.098450 841.820557,531.950745 839.835083,532.357300 
	C839.020203,532.524170 839.096252,531.230408 839.002808,530.121155 
z"/>
<path fill="#39A1EA" opacity="1.000000" stroke="none" 
	d="
M789.890991,181.022156 
	C789.473083,181.385147 789.094360,181.358444 788.434082,181.381149 
	C788.209045,180.433731 787.486206,178.948608 788.850769,178.651703 
	C790.183472,178.361740 789.821289,179.805191 789.890991,181.022156 
z"/>
<path fill="#34ACED" opacity="1.000000" stroke="none" 
	d="
M842.824402,525.055420 
	C842.265381,524.792297 842.029907,524.354553 841.753662,523.672241 
	C842.192505,522.820557 842.652161,521.847473 843.543152,522.770264 
	C844.237793,523.489746 843.765625,524.262878 842.824402,525.055420 
z"/>
<path fill="#39A1EA" opacity="1.000000" stroke="none" 
	d="
M770.392700,707.466309 
	C769.577087,707.698792 769.284546,707.411743 769.408142,706.780273 
	C769.433960,706.648804 769.619568,706.471436 769.752258,706.451233 
	C770.391052,706.354126 770.659119,706.664124 770.392700,707.466309 
z"/>
<path fill="#39A1EA" opacity="1.000000" stroke="none" 
	d="
M786.065552,188.143707 
	C786.544250,188.138031 787.027039,188.438232 787.744934,188.898239 
	C786.920471,190.182648 786.373474,189.697815 786.065552,188.143707 
z"/>
<path fill="#39A1EA" opacity="1.000000" stroke="none" 
	d="
M789.538330,287.973969 
	C789.715759,288.128998 789.693237,288.319244 789.500916,288.743958 
	C788.473938,288.648865 788.350403,288.324829 789.538330,287.973969 
z"/>
<path fill="#6DCAF5" opacity="1.000000" stroke="none" 
	d="
M793.207886,292.903870 
	C792.995605,293.038269 792.940308,292.624359 792.898193,292.421661 
	C793.019226,292.149109 793.182434,292.079224 793.604858,291.952515 
	C793.716187,292.186920 793.568176,292.478180 793.207886,292.903870 
z"/>
<path fill="#39A1EA" opacity="1.000000" stroke="none" 
	d="
M784.332764,505.160675 
	C784.582397,505.153381 784.480103,505.623566 784.397095,505.849609 
	C784.097717,505.857819 783.881348,505.639923 783.664978,505.422028 
	C783.804382,505.337341 783.943787,505.252655 784.332764,505.160675 
z"/>
<path fill="#39A1EA" opacity="1.000000" stroke="none" 
	d="
M791.864624,509.879944 
	C791.653748,509.897522 791.787170,509.431244 791.903992,509.218750 
	C792.155334,509.219879 792.289856,509.433502 792.424377,509.647156 
	C792.308105,509.718872 792.191772,509.790619 791.864624,509.879944 
z"/>
<path fill="#34ACED" opacity="1.000000" stroke="none" 
	d="
M834.807739,128.855804 
	C834.573425,128.872894 834.686890,128.412354 834.735657,128.179749 
	C834.991699,128.150452 835.198975,128.353745 835.406311,128.557037 
	C835.284912,128.650940 835.163513,128.744843 834.807739,128.855804 
z"/>
<path fill="#B4C9F4" opacity="1.000000" stroke="none" 
	d="
M356.676147,288.409393 
	C354.141815,290.027679 352.290253,289.646851 350.898468,287.363983 
	C349.863373,285.666138 350.287720,284.016296 351.592407,282.822754 
	C352.936035,281.593628 354.833710,281.613739 356.272156,282.545410 
	C358.538483,284.013245 358.347687,286.094879 356.676147,288.409393 
z"/>
<path fill="#A4BDF0" opacity="1.000000" stroke="none" 
	d="
M336.995728,283.694000 
	C339.416595,285.803192 338.961029,287.540924 337.133942,289.371185 
	C335.688843,290.818756 334.306122,290.751923 332.741943,289.688721 
	C331.125885,288.590240 330.791229,287.117706 331.458649,285.380341 
	C332.461975,282.768616 334.401672,282.604767 336.995728,283.694000 
z"/>
<path fill="#B4C9F4" opacity="1.000000" stroke="none" 
	d="
M403.458618,133.438416 
	C405.828339,135.909866 406.454437,138.188400 403.123108,140.411835 
	C401.183411,140.957718 399.913544,140.217896 398.599182,138.745728 
	C398.105255,138.482193 397.868073,138.432968 397.940338,138.193329 
	C397.821777,134.318054 400.029144,133.378082 403.458618,133.438416 
z"/>
<path fill="#CEE9FA" opacity="1.000000" stroke="none" 
	d="
M373.290649,638.921082 
	C370.789734,637.948120 369.833984,636.424805 370.899780,634.221619 
	C371.593140,632.788147 372.948853,632.122375 374.574280,632.424683 
	C376.015656,632.692871 376.853760,633.616638 376.943878,635.119263 
	C377.083435,637.445557 376.168793,638.891907 373.290649,638.921082 
z"/>
<path fill="#D9EBFB" opacity="1.000000" stroke="none" 
	d="
M377.361145,581.074036 
	C374.303314,582.349365 372.418274,581.518372 372.247650,578.489929 
	C372.125580,576.323059 373.631195,575.025696 375.775940,575.464355 
	C379.082520,576.140686 378.546387,578.482300 377.361145,581.074036 
z"/>
<path fill="#4582E3" opacity="1.000000" stroke="none" 
	d="
M401.056396,201.074890 
	C403.317200,197.419968 405.207672,200.764267 407.173584,201.320251 
	C408.168793,201.601730 408.159241,203.467010 407.143921,203.674759 
	C405.598877,203.990921 405.557861,208.135910 402.884338,204.985367 
	C401.903717,203.743118 401.658691,202.484406 401.056396,201.074890 
z"/>
<path fill="#7791E6" opacity="1.000000" stroke="none" 
	d="
M361.536377,121.599396 
	C359.476624,119.619392 359.819336,118.088783 362.054962,117.246323 
	C363.567657,116.676277 365.342773,117.113014 365.641022,118.861549 
	C366.131805,121.738892 364.130463,122.081459 361.536377,121.599396 
z"/>
<path fill="#A4BDF0" opacity="1.000000" stroke="none" 
	d="
M400.638275,200.837891 
	C402.661987,201.236328 403.068420,202.431778 402.836121,204.320801 
	C401.400879,205.622894 399.995331,206.462967 398.831451,204.338684 
	C397.872742,202.588837 397.906189,201.251831 400.638275,200.837891 
z"/>
<path fill="#7791E6" opacity="1.000000" stroke="none" 
	d="
M357.658508,355.880341 
	C356.863922,357.633667 356.108490,359.469330 354.050781,358.216400 
	C352.815430,357.464233 352.519562,355.798279 353.534210,354.779236 
	C354.970703,353.336639 356.499115,353.907990 357.658508,355.880341 
z"/>
<path fill="#A4BDF0" opacity="1.000000" stroke="none" 
	d="
M375.607544,330.683319 
	C377.263672,332.192810 377.166107,333.449707 375.545441,334.469391 
	C374.798676,334.939148 373.725098,334.997345 373.405640,334.123413 
	C372.774506,332.397003 372.950500,330.818115 375.607544,330.683319 
z"/>
<path fill="#A4BDF0" opacity="1.000000" stroke="none" 
	d="
M409.605194,505.359375 
	C411.464905,507.772095 411.368347,509.217834 407.630066,508.824066 
	C407.287140,508.786346 407.209595,508.818359 407.178162,508.846130 
	C406.375488,508.226349 406.321106,507.430695 407.048279,506.354767 
	C408.068390,505.877960 408.707275,505.598724 409.605194,505.359375 
z"/>
<path fill="#8497E9" opacity="1.000000" stroke="none" 
	d="
M318.240662,309.247131 
	C318.262115,308.214264 318.508789,307.432739 318.891235,306.371887 
	C320.459778,306.162354 321.146606,306.967865 320.949738,308.335938 
	C320.731903,309.849701 319.793488,310.175934 318.240662,309.247131 
z"/>
<path fill="#4582E3" opacity="1.000000" stroke="none" 
	d="
M407.051361,506.139862 
	C407.359283,506.837067 407.289062,507.516937 407.182800,508.535339 
	C406.161224,508.894592 405.235962,508.737274 405.194275,507.511108 
	C405.163055,506.593414 405.827972,506.212891 407.051361,506.139862 
z"/>
<path fill="#4582E3" opacity="1.000000" stroke="none" 
	d="
M397.926331,138.027588 
	C398.249786,138.002884 398.318787,138.266586 398.330627,138.399002 
	C397.859802,139.090363 397.413055,140.247635 396.575378,139.225372 
	C396.101288,138.646790 396.941742,138.194275 397.926331,138.027588 
z"/>
<path fill="#87C7F4" opacity="1.000000" stroke="none" 
	d="
M673.291748,88.814850 
	C670.726135,87.692192 669.422363,86.119026 670.447449,83.619972 
	C671.122742,81.973511 672.736145,81.885857 674.265015,82.036682 
	C676.004517,82.208275 676.886414,83.266983 676.984863,84.992149 
	C677.118652,87.336777 676.267761,88.848991 673.291748,88.814850 
z"/>
<path fill="#87C7F4" opacity="1.000000" stroke="none" 
	d="
M637.124268,164.520142 
	C636.205505,164.819901 635.468262,164.835052 634.361572,164.857391 
	C633.869812,165.044586 633.747498,165.224594 633.460571,165.122742 
	C632.495056,162.167023 629.884521,158.972366 635.623169,158.049271 
	C640.199463,159.306824 639.392578,161.636826 637.124268,164.520142 
z"/>
<path fill="#D9EBFB" opacity="1.000000" stroke="none" 
	d="
M683.193176,655.550415 
	C680.901184,654.316528 680.519104,652.680725 681.539124,650.787048 
	C682.272705,649.425110 683.612061,649.160034 685.010071,649.597168 
	C686.376404,650.024414 687.494507,650.932495 687.283325,652.470276 
	C687.002991,654.511902 685.785400,655.772034 683.193176,655.550415 
z"/>
<path fill="#87C7F4" opacity="1.000000" stroke="none" 
	d="
M712.110535,267.550659 
	C713.650085,266.182556 715.248596,265.383453 716.977783,266.716949 
	C717.964905,267.478180 718.165955,268.614349 717.841248,269.782074 
	C717.290100,271.764130 715.717590,271.960693 713.646851,271.849426 
	C712.345093,270.685303 711.962646,269.370941 712.110535,267.550659 
z"/>
<path fill="#67ACED" opacity="1.000000" stroke="none" 
	d="
M632.354980,479.238617 
	C630.564697,474.752441 631.125732,474.022308 635.598572,474.886902 
	C635.909729,475.032349 635.945740,475.515076 635.954590,475.756927 
	C635.717163,476.783020 635.471008,477.567230 635.094971,478.637451 
	C634.319275,479.568024 633.550232,479.712860 632.354980,479.238617 
z"/>
<path fill="#67ACED" opacity="1.000000" stroke="none" 
	d="
M683.835449,628.221069 
	C685.472961,628.935059 686.396362,629.877136 685.427856,631.310120 
	C684.816406,632.214783 683.513000,632.226440 682.837708,631.542053 
	C681.634399,630.322571 681.513733,628.973206 683.835449,628.221069 
z"/>
<path fill="#8497E9" opacity="1.000000" stroke="none" 
	d="
M182.595154,141.881256 
	C182.903229,142.762024 182.927246,143.481125 182.958344,144.558441 
	C182.686478,145.094330 182.389954,145.249664 182.131439,145.453217 
	C180.184311,146.986450 178.066452,148.148499 176.090347,145.788452 
	C174.913666,144.383179 174.467987,142.687546 176.183060,140.932098 
	C178.738068,138.316940 180.497406,139.716125 182.595154,141.881256 
z"/>
<path fill="#8497E9" opacity="1.000000" stroke="none" 
	d="
M109.429916,292.920349 
	C107.395882,290.296356 107.792397,288.124969 110.702423,286.276733 
	C112.869095,287.051971 114.302101,288.315796 113.904816,290.607117 
	C113.504944,292.913361 111.702477,293.070068 109.429916,292.920349 
z"/>
<path fill="#A4BDF0" opacity="1.000000" stroke="none" 
	d="
M117.769646,433.332764 
	C118.948662,431.386230 120.291756,430.465912 122.079536,431.543884 
	C123.211876,432.226624 123.187065,433.649261 122.669052,434.691956 
	C121.764999,436.511627 120.266151,435.959564 118.530037,435.116882 
	C117.712608,434.665710 117.496956,434.233795 117.769646,433.332764 
z"/>
<path fill="#B4C9F4" opacity="1.000000" stroke="none" 
	d="
M184.981201,114.761505 
	C187.078796,114.027367 188.711426,114.405609 188.746750,116.554741 
	C188.777451,118.423843 187.383148,118.973587 185.312866,118.241821 
	C183.726395,117.214798 183.695709,116.131081 184.981201,114.761505 
z"/>
<path fill="#7791E6" opacity="1.000000" stroke="none" 
	d="
M163.832825,645.193420 
	C165.983490,646.221863 166.607437,647.522339 165.069031,649.192749 
	C164.428223,649.888550 163.456345,649.868408 162.891663,649.126221 
	C161.795258,647.685120 161.198334,646.170410 163.832825,645.193420 
z"/>
<path fill="#8497E9" opacity="1.000000" stroke="none" 
	d="
M139.058380,525.819702 
	C138.091461,525.106628 137.807510,524.374207 138.532974,523.677734 
	C139.078323,523.154236 139.743790,523.355957 140.180069,523.920166 
	C141.011688,524.995544 140.629242,525.642456 139.058380,525.819702 
z"/>
<path fill="#545FDA" opacity="1.000000" stroke="none" 
	d="
M117.751961,433.160950 
	C118.028641,433.437531 118.077957,433.872101 118.167358,434.632385 
	C117.391273,434.656921 116.971092,434.190765 117.751961,433.160950 
z"/>
<path fill="#497AE1" opacity="1.000000" stroke="none" 
	d="
M318.570129,140.000153 
	C319.065369,140.654633 319.127533,141.881760 319.196594,141.882156 
	C323.790375,141.908020 321.498962,145.652756 322.364655,147.660233 
	C323.015991,149.170609 322.656860,150.308975 321.071045,150.757812 
	C319.513397,151.198685 319.342010,149.847733 318.751526,148.845474 
	C318.108307,147.753738 317.012421,146.928696 315.759064,145.818359 
	C315.512604,143.969589 315.210724,142.353790 314.676117,140.464874 
	C315.851379,140.100540 316.995819,140.050415 318.570129,140.000153 
z"/>
<path fill="#D9EBFB" opacity="1.000000" stroke="none" 
	d="
M254.039169,144.105545 
	C254.683304,141.903244 255.880829,140.933655 257.798035,141.775208 
	C259.060486,142.329330 259.869507,143.450775 259.535919,144.967133 
	C259.270752,146.172455 258.506195,147.159744 257.259460,147.273712 
	C255.335602,147.449570 254.137070,146.506882 254.039169,144.105545 
z"/>
<path fill="#D9EBFB" opacity="1.000000" stroke="none" 
	d="
M314.361145,140.185089 
	C315.944641,141.629440 317.432281,143.052841 315.611145,145.406509 
	C313.543793,146.015152 311.686401,146.076981 311.154846,143.772278 
	C310.651215,141.588470 311.924866,140.492035 314.361145,140.185089 
z"/>
<path fill="#B4C9F4" opacity="1.000000" stroke="none" 
	d="
M254.859650,188.318054 
	C254.978256,190.330490 254.216522,191.040131 252.557098,190.447159 
	C251.787643,190.172211 250.862473,189.583908 251.281631,188.755630 
	C252.014160,187.308044 253.236237,186.657379 254.859650,188.318054 
z"/>
<path fill="#B4C9F4" opacity="1.000000" stroke="none" 
	d="
M243.886139,644.553467 
	C242.362823,644.976013 240.590286,645.113708 240.585266,643.150696 
	C240.580582,641.319885 241.941849,640.842468 243.875107,641.797424 
	C244.077347,642.727600 244.018707,643.460571 243.886139,644.553467 
z"/>
<path fill="#497AE1" opacity="1.000000" stroke="none" 
	d="
M319.284607,139.965210 
	C319.090210,139.363617 319.086243,138.637131 319.912750,138.499115 
	C320.087433,138.469955 320.327454,138.832352 320.537384,139.014343 
	C320.214661,139.319687 319.891937,139.625046 319.284607,139.965210 
z"/>
<path fill="#A4BDF0" opacity="1.000000" stroke="none" 
	d="
M69.080284,584.035767 
	C69.764397,581.448547 71.116501,580.518433 73.069824,582.129150 
	C74.379555,583.209106 74.408867,584.931519 73.038673,586.019958 
	C71.011887,587.629944 69.742210,586.555481 69.080284,584.035767 
z"/>
<path fill="#A4BDF0" opacity="1.000000" stroke="none" 
	d="
M75.092133,187.420166 
	C73.500305,189.195099 72.732353,188.184494 72.235962,186.833847 
	C71.933517,186.010910 72.276375,185.042328 73.147179,184.871902 
	C74.882896,184.532211 75.407654,185.590500 75.092133,187.420166 
z"/>
<path fill="#5166DD" opacity="1.000000" stroke="none" 
	d="
M105.449654,697.532349 
	C105.416420,697.476685 105.482887,697.587952 105.449654,697.532349 
z"/>
<path fill="#D9EBFB" opacity="1.000000" stroke="none" 
	d="
M1064.053223,260.905640 
	C1061.590088,261.988892 1060.289673,260.913116 1059.684326,258.976929 
	C1059.284546,257.698059 1059.532837,256.327118 1060.939453,255.617737 
	C1062.195312,254.984406 1063.541260,254.941101 1064.534912,256.033325 
	C1065.945190,257.583679 1066.049072,259.221466 1064.053223,260.905640 
z"/>
<path fill="#CEE9FA" opacity="1.000000" stroke="none" 
	d="
M1087.522461,202.705231 
	C1089.481201,204.789246 1089.296997,206.525330 1086.974976,207.520691 
	C1085.496216,208.154572 1083.833496,207.566513 1083.646484,205.776031 
	C1083.397583,203.391022 1084.749146,202.200363 1087.522461,202.705231 
z"/>
<path fill="#AAD9F6" opacity="1.000000" stroke="none" 
	d="
M1092.781006,543.445557 
	C1095.462280,542.817993 1097.191284,543.232422 1096.789917,546.161804 
	C1096.554321,547.881287 1095.067993,548.365906 1093.816406,547.829285 
	C1092.054199,547.073792 1089.873535,545.985962 1092.781006,543.445557 
z"/>
<path fill="#AAD9F6" opacity="1.000000" stroke="none" 
	d="
M1114.944824,506.590637 
	C1112.462158,505.658020 1111.502075,504.161072 1113.050659,502.058167 
	C1113.854980,500.966003 1115.215332,501.091797 1116.072510,502.069550 
	C1117.562256,503.768738 1117.248901,505.344391 1114.944824,506.590637 
z"/>
<path fill="#6DCAF5" opacity="1.000000" stroke="none" 
	d="
M1132.708008,552.780273 
	C1133.314087,556.580750 1131.924927,557.900818 1128.191040,556.271484 
	C1128.194214,554.888550 1128.467407,553.776062 1128.883667,552.345459 
	C1129.026855,552.027283 1129.000977,552.013550 1129.005615,552.023132 
	C1130.320557,551.008484 1131.352295,551.935730 1132.708008,552.780273 
z"/>
<path fill="#6DCAF5" opacity="1.000000" stroke="none" 
	d="
M1081.210327,43.752083 
	C1081.039551,41.265991 1082.189575,40.737263 1083.960449,41.371170 
	C1084.838989,41.685596 1085.059937,42.682133 1084.766846,43.468037 
	C1084.025269,45.456375 1082.729858,45.262516 1081.210327,43.752083 
z"/>
<path fill="#6DCAF5" opacity="1.000000" stroke="none" 
	d="
M1084.204590,32.746876 
	C1085.046143,30.515331 1086.352661,30.584553 1087.593262,31.842110 
	C1088.177368,32.434128 1087.895142,33.430092 1087.219727,34.019787 
	C1085.778931,35.277607 1084.905029,34.461365 1084.204590,32.746876 
z"/>
<path fill="#2EBBF0" opacity="1.000000" stroke="none" 
	d="
M1068.449463,257.532928 
	C1068.416260,257.477142 1068.482788,257.588715 1068.449463,257.532928 
z"/>
<path fill="#28C8F3" opacity="1.000000" stroke="none" 
	d="
M1126.532715,553.550842 
	C1126.477051,553.584351 1126.588501,553.517334 1126.532715,553.550842 
z"/>
<path fill="#CEE9FA" opacity="1.000000" stroke="none" 
	d="
M1141.693604,127.812363 
	C1144.081665,129.401520 1145.817383,130.969055 1144.273315,133.694916 
	C1143.103394,135.760590 1141.092163,136.273834 1139.155640,135.127350 
	C1135.351440,132.875061 1137.266357,130.586990 1139.719971,128.239258 
	C1140.380249,127.637466 1140.842529,127.481010 1141.693604,127.812363 
z"/>
<path fill="#2BC2F2" opacity="1.000000" stroke="none" 
	d="
M1136.062256,242.779999 
	C1137.621826,246.011017 1135.895874,247.437592 1133.408447,247.777420 
	C1131.699463,248.010925 1130.865356,246.395386 1131.103638,244.758530 
	C1131.528198,241.841125 1133.426758,241.613556 1136.062256,242.779999 
z"/>
<path fill="#CEE9FA" opacity="1.000000" stroke="none" 
	d="
M1196.052979,345.911316 
	C1197.352905,348.431030 1196.973511,350.204468 1194.282104,350.469788 
	C1192.614624,350.634186 1191.361816,349.301971 1191.532471,347.650085 
	C1191.808960,344.972290 1193.540161,344.538055 1196.052979,345.911316 
z"/>
<path fill="#2BC2F2" opacity="1.000000" stroke="none" 
	d="
M1132.935791,552.692871 
	C1131.887817,552.718994 1130.792725,552.398376 1129.354004,552.055298 
	C1130.423340,550.649902 1131.747681,550.362732 1132.935791,552.692871 
z"/>
<path fill="#2BC2F2" opacity="1.000000" stroke="none" 
	d="
M1141.962402,127.745537 
	C1141.554321,128.070389 1141.110352,128.090118 1140.334595,128.076721 
	C1140.234497,127.513359 1140.330688,126.716759 1140.729248,126.513901 
	C1141.361572,126.191948 1141.762817,126.805534 1141.962402,127.745537 
z"/>
<path fill="#9ECAF3" opacity="1.000000" stroke="none" 
	d="
M578.671082,679.764954 
	C578.848572,682.425110 579.918030,685.372009 576.151550,685.821045 
	C574.084045,686.067505 572.411072,684.705933 572.391174,682.740356 
	C572.361572,679.830750 574.492737,678.945679 577.533081,679.219116 
	C578.119080,679.321594 578.328308,679.391785 578.671082,679.764954 
z"/>
<path fill="#87C7F4" opacity="1.000000" stroke="none" 
	d="
M557.609253,287.603699 
	C558.284241,290.329285 556.893372,291.326141 554.879272,291.704224 
	C553.540955,291.955414 552.587524,291.163574 552.247253,289.938843 
	C551.838684,288.468140 551.747742,286.984955 553.343445,285.969635 
	C555.274780,284.740723 556.426147,285.774384 557.609253,287.603699 
z"/>
<path fill="#CEE9FA" opacity="1.000000" stroke="none" 
	d="
M525.282471,179.779556 
	C523.235962,179.882889 521.818542,179.120514 521.625732,177.285812 
	C521.438232,175.502304 522.385742,174.273376 524.660522,173.994568 
	C525.488342,174.187225 525.972229,174.443237 526.650024,174.894135 
	C527.008972,175.200821 527.174011,175.312607 527.292603,175.719727 
	C527.332458,177.508881 526.892395,178.753464 525.282471,179.779556 
z"/>
<path fill="#67ACED" opacity="1.000000" stroke="none" 
	d="
M586.640320,269.854858 
	C587.114807,271.466278 586.761780,272.673157 585.183105,273.671448 
	C582.686890,274.249542 581.630005,272.946350 581.201660,270.941467 
	C580.969666,269.855408 581.465637,268.982697 582.411926,268.450775 
	C584.131287,267.484375 585.165527,268.834351 586.640320,269.854858 
z"/>
<path fill="#87C7F4" opacity="1.000000" stroke="none" 
	d="
M566.964905,27.055246 
	C568.763245,27.543148 569.307190,28.396809 568.102173,29.574547 
	C567.486328,30.176416 566.442688,30.195011 565.818787,29.574221 
	C564.626953,28.388302 565.170898,27.536509 566.964905,27.055246 
z"/>
<path fill="#3F93E7" opacity="1.000000" stroke="none" 
	d="
M579.163879,680.004395 
	C578.534729,679.976562 578.307739,679.822144 578.016724,679.428101 
	C578.172119,677.923218 578.613892,676.396912 580.273376,677.531677 
	C581.532776,678.392761 580.839294,679.451294 579.163879,680.004395 
z"/>
<path fill="#67ACED" opacity="1.000000" stroke="none" 
	d="
M527.370667,175.878815 
	C527.151001,175.872818 527.055786,175.730576 526.902344,175.338699 
	C527.061035,175.306885 527.278076,175.524719 527.370667,175.878815 
z"/>
<path fill="#4388E5" opacity="1.000000" stroke="none" 
	d="
M529.550659,691.467041 
	C529.584167,691.522949 529.517151,691.411072 529.550659,691.467041 
z"/>
<path fill="#23D5F6" opacity="1.000000" stroke="none" 
	d="
M1262.997559,635.001221 
	C1262.359741,634.909973 1261.633423,634.912048 1261.498291,634.085571 
	C1261.469849,633.910645 1261.832397,633.671814 1262.014771,633.462402 
	C1262.320435,633.784607 1262.625977,634.106873 1262.967407,634.713318 
	C1263.003174,634.997559 1263.000000,635.000000 1262.997559,635.001221 
z"/>
<path fill="#B4C9F4" opacity="1.000000" stroke="none" 
	d="
M459.418274,198.433594 
	C458.874146,195.636017 459.880280,194.287109 462.388489,194.070099 
	C464.244141,193.909561 465.063690,195.099091 465.663147,196.543823 
	C466.270935,198.008667 465.537506,199.327362 464.556702,200.105637 
	C462.497620,201.739578 460.883331,200.564178 459.418274,198.433594 
z"/>
<path fill="#7791E6" opacity="1.000000" stroke="none" 
	d="
M232.439819,510.464844 
	C235.321808,509.639557 237.066132,510.686890 237.742996,513.086060 
	C238.224228,514.791748 236.865631,515.857727 235.534729,516.575623 
	C234.286606,517.248779 232.830627,517.234802 231.901001,516.062439 
	C230.501678,514.297729 230.613495,512.410522 232.439819,510.464844 
z"/>
<path fill="#7791E6" opacity="1.000000" stroke="none" 
	d="
M213.606995,146.503326 
	C213.883728,148.501495 213.535141,149.927597 211.419189,149.440826 
	C210.392548,149.204651 209.873260,148.106247 210.217758,147.061508 
	C210.805008,145.280533 211.870575,144.624146 213.606995,146.503326 
z"/>
<path fill="#AAD9F6" opacity="1.000000" stroke="none" 
	d="
M715.098450,196.535431 
	C714.884766,193.794739 716.071960,192.823990 718.328308,193.011642 
	C719.820984,193.135773 720.788025,193.943909 721.009460,195.442184 
	C721.240479,197.005539 721.007324,198.427505 719.317139,199.137451 
	C717.024841,200.100311 715.998657,198.669830 715.098450,196.535431 
z"/>
<path fill="#67ACED" opacity="1.000000" stroke="none" 
	d="
M735.955688,229.220444 
	C734.755066,227.301559 734.672241,225.870178 736.561951,224.772247 
	C737.955872,223.962433 739.124023,224.373672 740.170837,225.294800 
	C741.338013,226.321869 741.323059,227.833557 740.649597,228.924896 
	C739.564697,230.683121 737.826050,230.084366 735.955688,229.220444 
z"/>
<path fill="#AAD9F6" opacity="1.000000" stroke="none" 
	d="
M746.946350,548.852051 
	C744.254272,547.393555 744.406250,545.705627 746.308472,544.128906 
	C747.457336,543.176697 748.578674,543.910522 749.223572,544.975830 
	C750.547974,547.163879 749.562500,548.362732 746.946350,548.852051 
z"/>
<path fill="#6DCAF5" opacity="1.000000" stroke="none" 
	d="
M756.347534,531.564514 
	C758.283325,531.472046 759.048584,532.372070 758.649170,533.907532 
	C758.345337,535.075134 757.186401,535.185059 756.282410,534.783875 
	C754.510742,533.997620 755.103027,532.837646 756.347534,531.564514 
z"/>
<path fill="#87C7F4" opacity="1.000000" stroke="none" 
	d="
M995.031982,389.295776 
	C993.346924,391.033081 991.695251,391.526581 990.014771,390.096222 
	C988.729919,389.002594 988.749634,387.371582 989.403687,386.011108 
	C989.993286,384.784760 991.261719,384.046814 992.694519,384.562836 
	C994.724976,385.294098 996.102478,386.554810 995.031982,389.295776 
z"/>
<path fill="#31B3EE" opacity="1.000000" stroke="none" 
	d="
M979.257141,613.858276 
	C979.104797,613.961975 978.972290,613.481750 978.945557,613.233765 
	C979.082397,613.242004 979.245911,613.498291 979.257141,613.858276 
z"/>
<path fill="#D9EBFB" opacity="1.000000" stroke="none" 
	d="
M616.503662,244.339233 
	C618.632629,245.652908 621.208740,246.729385 620.453613,249.768875 
	C619.540161,253.445404 616.312927,253.564346 612.464355,249.994919 
	C612.656860,247.438507 613.544312,245.298889 616.503662,244.339233 
z"/>
<path fill="#D9EBFB" opacity="1.000000" stroke="none" 
	d="
M604.086670,460.198792 
	C606.512634,460.734741 608.994812,461.117035 608.678284,463.974274 
	C608.515503,465.443756 608.078613,467.331818 606.000000,467.694885 
	C603.923889,468.057465 602.379028,467.191284 601.588501,465.336060 
	C600.606873,463.032410 601.109253,461.153839 604.086670,460.198792 
z"/>
<path fill="#67ACED" opacity="1.000000" stroke="none" 
	d="
M608.434570,562.321045 
	C605.389771,563.475952 603.125427,562.811340 602.281982,559.910339 
	C601.732971,558.021912 603.318726,556.531677 604.896667,556.304260 
	C609.780579,555.600159 609.111816,558.986389 608.434570,562.321045 
z"/>
<path fill="#87C7F4" opacity="1.000000" stroke="none" 
	d="
M595.838989,680.061890 
	C594.935852,678.048401 594.254211,676.170959 596.519836,675.224243 
	C597.832031,674.675903 599.468079,674.580444 600.624390,675.806641 
	C601.566162,676.805298 601.981384,678.014587 601.180176,679.367920 
	C599.852295,681.610779 598.029724,681.198730 595.838989,680.061890 
z"/>
<path fill="#67ACED" opacity="1.000000" stroke="none" 
	d="
M619.497559,647.590576 
	C616.455811,648.237610 614.792908,647.307922 615.181458,644.365662 
	C615.458313,642.268677 617.195801,641.561035 618.923645,642.252869 
	C621.648315,643.343933 621.570374,645.322327 619.497559,647.590576 
z"/>
<path fill="#9ECAF3" opacity="1.000000" stroke="none" 
	d="
M631.099976,577.712280 
	C630.856262,578.421082 630.797791,578.837341 630.700806,579.566406 
	C630.645203,580.646057 630.197266,581.060913 629.255493,581.077148 
	C627.023926,580.898254 625.185364,580.543030 625.215881,578.082520 
	C625.246033,575.661011 627.153320,575.364563 629.412415,575.292542 
	C630.802979,575.641052 631.168152,576.440613 631.099976,577.712280 
z"/>
<path fill="#9ECAF3" opacity="1.000000" stroke="none" 
	d="
M613.447266,82.636398 
	C616.019287,79.942360 617.681519,81.465912 618.517822,83.662720 
	C619.071899,85.118187 617.938293,86.650398 616.200928,86.838203 
	C613.272278,87.154785 612.994873,85.210732 613.447266,82.636398 
z"/>
<path fill="#3C99E8" opacity="1.000000" stroke="none" 
	d="
M628.999146,581.286377 
	C629.409973,580.614075 629.823608,580.357971 630.449829,579.990601 
	C632.574707,580.107910 634.908630,579.900146 634.778381,582.804077 
	C634.708679,584.357666 633.412476,584.836243 631.982605,584.975342 
	C629.484131,585.218506 628.842224,583.843018 628.999146,581.286377 
z"/>
<path fill="#3C99E8" opacity="1.000000" stroke="none" 
	d="
M631.676270,479.047424 
	C632.757324,478.983246 633.493896,478.973846 634.597778,478.943939 
	C635.227783,481.363586 633.961182,482.977203 631.706726,482.537354 
	C629.986450,482.201691 629.075745,480.524750 631.676270,479.047424 
z"/>
<path fill="#3C99E8" opacity="1.000000" stroke="none" 
	d="
M632.931213,164.871826 
	C633.295898,164.840912 633.644653,164.840454 633.818359,164.852509 
	C633.810852,166.566513 634.339172,168.968506 631.423462,168.456894 
	C630.073792,168.220078 629.234497,166.455490 629.458069,165.336288 
	C629.896729,163.139709 631.514771,165.210861 632.931213,164.871826 
z"/>
<path fill="#3C99E8" opacity="1.000000" stroke="none" 
	d="
M631.261108,577.957397 
	C630.584534,577.296570 630.254395,576.588257 629.847046,575.602173 
	C630.607361,573.954956 631.618408,573.978027 632.454895,575.206299 
	C633.206421,576.309875 633.133850,577.399353 631.261108,577.957397 
z"/>
<path fill="#3C99E8" opacity="1.000000" stroke="none" 
	d="
M629.526611,570.975220 
	C630.340393,569.895325 631.247559,569.847961 632.135071,570.421021 
	C632.604797,570.724365 632.594360,571.283691 632.118713,571.577271 
	C631.221130,572.131226 630.315735,572.085205 629.526611,570.975220 
z"/>
<path fill="#3C99E8" opacity="1.000000" stroke="none" 
	d="
M616.799194,244.073120 
	C617.109619,243.263382 617.255859,242.112900 618.564819,242.218048 
	C618.895325,242.244583 619.479126,242.796646 619.446045,243.038773 
	C619.294556,244.146255 618.264282,243.877457 617.167847,244.124725 
	C616.805786,244.184525 616.867737,244.011581 616.799194,244.073120 
z"/>
<path fill="#3C99E8" opacity="1.000000" stroke="none" 
	d="
M612.067993,249.918167 
	C611.889832,250.780563 611.802307,251.870392 610.453430,251.830093 
	C610.204163,251.822632 609.739624,251.510300 609.754028,251.380829 
	C609.865723,250.374527 610.714844,250.207779 611.825195,249.928970 
	C612.150513,249.865479 612.000732,249.988602 612.067993,249.918167 
z"/>
<path fill="#3C99E8" opacity="1.000000" stroke="none" 
	d="
M622.134033,250.366287 
	C622.883545,249.240326 623.306763,249.922684 623.530090,250.484207 
	C623.630676,250.737076 623.216980,251.194458 623.036560,251.559052 
	C622.728333,251.251099 622.420105,250.943176 622.134033,250.366287 
z"/>
<path fill="#A4BDF0" opacity="1.000000" stroke="none" 
	d="
M483.873627,176.964905 
	C485.292206,179.866241 484.105377,181.464737 481.777344,182.349136 
	C480.130402,182.974777 478.910431,181.979584 478.021423,180.660187 
	C477.097839,179.289474 476.894043,177.869110 478.182312,176.584549 
	C480.025055,174.747070 481.887726,174.480591 483.873627,176.964905 
z"/>
<path fill="#87C7F4" opacity="1.000000" stroke="none" 
	d="
M482.460449,529.464600 
	C482.138794,532.023315 480.578522,532.388550 478.881958,531.547363 
	C477.691742,530.957214 477.729797,529.463318 478.459564,528.472778 
	C480.066589,526.291443 481.222229,527.854004 482.460449,529.464600 
z"/>
<path fill="#6DCAF5" opacity="1.000000" stroke="none" 
	d="
M1304.234009,93.763992 
	C1302.231934,92.808128 1300.625977,91.790451 1301.455688,89.545242 
	C1301.853149,88.469978 1302.716187,87.441666 1303.959229,87.440048 
	C1305.315796,87.438278 1306.605469,88.051270 1306.840698,89.600433 
	C1307.126953,91.485245 1307.030518,93.301712 1304.234009,93.763992 
z"/>
<path fill="#CEE9FA" opacity="1.000000" stroke="none" 
	d="
M1279.153809,522.480957 
	C1278.953003,521.229614 1279.299316,520.513428 1280.348877,520.607788 
	C1281.067993,520.672424 1281.562500,521.328491 1281.357422,522.049622 
	C1281.038574,523.169861 1280.370972,523.775269 1279.153809,522.480957 
z"/>
<path fill="#B4C9F4" opacity="1.000000" stroke="none" 
	d="
M4.313704,136.912857 
	C1.560659,135.395966 1.416764,133.411911 2.701409,131.295670 
	C3.599514,129.816208 5.195312,129.763870 6.703740,130.197144 
	C8.621071,130.747864 9.210753,132.251099 8.983960,134.070160 
	C8.669538,136.592072 6.976468,137.270172 4.313704,136.912857 
z"/>
<path fill="#8497E9" opacity="1.000000" stroke="none" 
	d="
M26.198051,393.236084 
	C27.090919,391.457306 27.856306,389.662750 29.975414,390.733734 
	C31.150063,391.327423 32.138287,392.442719 31.770212,393.980682 
	C31.443123,395.347412 30.463844,396.494110 29.152130,396.739563 
	C26.825230,397.175079 26.668835,395.124084 26.198051,393.236084 
z"/>
<path fill="#8497E9" opacity="1.000000" stroke="none" 
	d="
M30.065830,697.376587 
	C32.042229,695.332886 33.228745,696.255981 33.806522,698.169434 
	C34.197334,699.463623 33.305965,700.549500 32.056709,700.723450 
	C29.699219,701.051758 29.973539,699.228638 30.065830,697.376587 
z"/>
<path fill="#545FDA" opacity="1.000000" stroke="none" 
	d="
M32.747910,119.162407 
	C32.589661,120.716690 31.810175,121.137222 30.792265,120.549294 
	C30.434759,120.342796 30.162033,119.305885 30.367977,118.937035 
	C30.960920,117.875061 31.853308,117.977539 32.747910,119.162407 
z"/>
<path fill="#8497E9" opacity="1.000000" stroke="none" 
	d="
M24.992519,719.592163 
	C23.984482,718.933167 23.778664,718.225281 24.587275,717.547119 
	C24.759058,717.403137 25.268070,717.411804 25.440363,717.560364 
	C26.244745,718.254089 26.017990,718.954651 24.992519,719.592163 
z"/>
<path fill="#36A6EB" opacity="1.000000" stroke="none" 
	d="
M856.075562,677.079468 
	C856.005127,676.989685 855.863281,676.820618 855.721436,676.651611 
	C855.813843,676.713928 855.906250,676.776184 856.080261,676.992065 
	C856.161804,677.145691 856.004272,677.000244 856.075562,677.079468 
z"/>
</svg>